<?xml version="1.0" encoding="UTF-8" standalone="no"?>
<svg width="66px" height="67px" viewBox="0 0 66 67" version="1.1" xmlns="http://www.w3.org/2000/svg" xmlns:xlink="http://www.w3.org/1999/xlink">
    <!-- Generator: Sketch 40 (33762) - http://www.bohemiancoding.com/sketch -->
    <title>XMLID_719_</title>
    <desc>Created with Sketch.</desc>
    <defs></defs>
    <g id="Page-1" stroke="none" stroke-width="1" fill="none" fill-rule="evenodd">
        <g id="mitjob-svg" transform="translate(-123.000000, -163.000000)">
            <g id="XMLID_47_">
                <g id="XMLID_719_" transform="translate(124.000000, 164.000000)">
                    <text id="XMLID_726_" fill="#C2C0B3" font-family="Avenir-Heavy, Avenir" font-size="28" font-weight="600" letter-spacing="-2">
                        <tspan x="16" y="44">1</tspan>
                        <tspan x="30.576" y="44">7</tspan>
                    </text>
                    <g id="XMLID_722_" opacity="0.4" transform="translate(3.000000, 4.000000)" fill="#D6933E">
                        <path d="M29,57 C13.3,57 0.6,44.3 0.6,28.6 C0.6,12.9 13.3,0.2 29,0.2 C44.7,0.2 57.4,12.9 57.4,28.6 C57.4,44.3 44.7,57 29,57 L29,57 Z M29,8.3 C17.8,8.3 8.6,17.4 8.6,28.7 C8.6,39.9 17.7,49.1 29,49.1 C40.2,49.1 49.4,40 49.4,28.7 C49.4,17.4 40.2,8.3 29,8.3 L29,8.3 Z" id="XMLID_723_"></path>
                    </g>
                    <path d="M51.4,26.4 L59.1,23.9 C55.4,12.5 44.7,4.3 32.1,4.3 L32.1,12.3 C41,12.3 48.7,18.2 51.4,26.4 L51.4,26.4 Z" id="XMLID_721_" fill="#D6933E"></path>
                    <path d="M62.3,23 C63.3,26 63.8,29.3 63.8,32.6 C63.8,50.2 49.6,64.4 32,64.4 C14.4,64.4 0.2,50.2 0.2,32.6 C0.2,15 14.4,0.8 32,0.8" id="XMLID_720_" stroke="#D6933E" stroke-width="2"></path>
                </g>
            </g>
        </g>
    </g>
</svg>