<?xml version="1.0" encoding="UTF-8" standalone="no"?>
<svg width="62px" height="62px" viewBox="0 0 62 62" version="1.1" xmlns="http://www.w3.org/2000/svg" xmlns:xlink="http://www.w3.org/1999/xlink">
    <!-- Generator: Sketch 40 (33762) - http://www.bohemiancoding.com/sketch -->
    <title>XMLID_711_</title>
    <desc>Created with Sketch.</desc>
    <defs></defs>
    <g id="Page-1" stroke="none" stroke-width="1" fill="none" fill-rule="evenodd">
        <g id="mitjob-svg" transform="translate(-295.000000, -163.000000)">
            <g id="XMLID_47_">
                <g id="XMLID_711_" transform="translate(296.000000, 164.000000)">
                    <text id="1.5" fill="#C2C0B3" font-family="Avenir-Heavy, Avenir" font-size="26" font-weight="600" letter-spacing="-2">
                        <tspan x="14" y="42">1.</tspan>
                        <tspan x="33.088" y="42">5</tspan>
                    </text>
                    <g id="XMLID_714_" opacity="0.4" transform="translate(3.000000, 4.000000)" fill="#55A031">
                        <path d="M28.7,57 C13,57 0.3,44.3 0.3,28.6 C0.3,12.9 13,0.2 28.7,0.2 C44.4,0.2 57.1,12.9 57.1,28.6 C57.1,44.3 44.4,57 28.7,57 L28.7,57 Z M28.7,8.3 C17.5,8.3 8.3,17.4 8.3,28.7 C8.3,39.9 17.4,49.1 28.7,49.1 C39.9,49.1 49.1,40 49.1,28.7 C49.1,17.4 40,8.3 28.7,8.3 L28.7,8.3 Z" id="XMLID_715_"></path>
                    </g>
                    <path d="M31.7,4.2 L31.7,12.2 C42.9,12.2 52.1,21.3 52.1,32.6 C52.1,43.8 43,53 31.7,53 C20.5,53 11.3,43.9 11.3,32.6 L11.3,32.6 L3.3,32.6 L3.3,32.6 C3.3,48.3 16,61 31.7,61 C47.4,61 60.1,48.3 60.1,32.6 C60.1,17 47.4,4.2 31.7,4.2 L31.7,4.2 Z" id="XMLID_713_" fill="#55A031"></path>
                    <path d="M0,32.6 C0,15 14.2,0.8 31.8,0.8" id="XMLID_712_" stroke="#55A031" stroke-width="2"></path>
                </g>
            </g>
        </g>
    </g>
</svg>