<?xml version="1.0" encoding="UTF-8" standalone="no"?>
<svg width="60px" height="62px" viewBox="0 0 60 62" version="1.1" xmlns="http://www.w3.org/2000/svg" xmlns:xlink="http://www.w3.org/1999/xlink">
    <!-- Generator: Sketch 40 (33762) - http://www.bohemiancoding.com/sketch -->
    <title>XMLID_701_</title>
    <desc>Created with Sketch.</desc>
    <defs></defs>
    <g id="Page-1" stroke="none" stroke-width="1" fill="none" fill-rule="evenodd">
        <g id="mitjob-svg" transform="translate(-461.000000, -163.000000)">
            <g id="XMLID_47_">
                <g id="XMLID_701_" transform="translate(462.000000, 164.000000)">
                    <g id="XMLID_707_" opacity="0.4" transform="translate(1.000000, 3.000000)" fill="#00A1C0">
                        <path d="M29.3,57.5 C13.6,57.5 0.9,44.8 0.9,29.1 C0.9,13.4 13.6,0.7 29.3,0.7 C45,0.7 57.7,13.4 57.7,29.1 C57.7,44.8 45,57.5 29.3,57.5 L29.3,57.5 Z M29.3,8.8 C18.1,8.8 8.9,17.9 8.9,29.2 C8.9,40.4 18,49.6 29.3,49.6 C40.5,49.6 49.7,40.5 49.7,29.2 C49.6,17.9 40.5,8.8 29.3,8.8 L29.3,8.8 Z" id="XMLID_708_"></path>
                    </g>
                    <g id="XMLID_704_" transform="translate(13.000000, 17.000000)" fill="#C2C0B3">
                        <text id="80" font-family="Avenir-Heavy, Avenir" font-size="24" font-weight="600" letter-spacing="-1.84615386">
                            <tspan x="0.1241" y="24.3115">8</tspan>
                            <tspan x="12.4859461" y="24.3115" letter-spacing="-1.70414197">0</tspan>
                        </text>
                        <text id="XMLID_705_" font-family="Helvetica" font-size="10" font-weight="normal">
                            <tspan x="25.4112" y="12.5663">%</tspan>
                        </text>
                    </g>
                    <path d="M30.3,3.7 L30.3,11.7 C41.5,11.7 50.7,20.8 50.7,32.1 C50.7,43.3 41.6,52.5 30.3,52.5 C19.1,52.5 9.9,43.4 9.9,32.1 C9.9,29.9 10.3,27.8 10.9,25.8 L3.2,23.3 C2.3,26.1 1.8,29 1.8,32.1 C1.8,47.8 14.5,60.5 30.2,60.5 C45.9,60.5 58.6,47.8 58.6,32.1 C58.7,16.5 46,3.7 30.3,3.7 L30.3,3.7 Z" id="XMLID_703_" fill="#00A1C0"></path>
                    <path d="M0.3,22.1 C4.6,9.7 16.4,0.9 30.3,0.9" id="XMLID_702_" stroke="#00A1C0" stroke-width="2"></path>
                </g>
            </g>
        </g>
    </g>
</svg>