<?xml version="1.0" encoding="UTF-8" standalone="no"?>
<svg width="204px" height="204px" viewBox="0 0 204 204" version="1.1" xmlns="http://www.w3.org/2000/svg" xmlns:xlink="http://www.w3.org/1999/xlink">
    <!-- Generator: Sketch 39 (31667) - http://www.bohemiancoding.com/sketch -->
    <title>global</title>
    <desc>Created with Sketch.</desc>
    <defs></defs>
    <g id="Page-1" stroke="none" stroke-width="1" fill="none" fill-rule="evenodd">
        <g id="global" transform="translate(4.000000, 4.000000)">
            <path d="M98,196 C152.123905,196 196,152.123905 196,98 C196,43.8760945 152.123905,0 98,0 C43.8760945,0 0,43.8760945 0,98 C0,152.123905 43.8760945,196 98,196 Z" id="Oval" stroke="#00AB80" stroke-width="8"></path>
            <g id="earth17" transform="translate(50.000000, 50.000000)" fill="#1EBA93">
                <path d="M71.9306667,6.7207619 C64.6255238,2.45790476 56.6506667,0.326857143 48.0007619,0.326857143 C39.351619,0.326857143 31.3752381,2.45790476 24.0708571,6.7207619 C16.7664762,10.9828571 10.983619,16.7657143 6.7207619,24.0700952 C2.45714286,31.3744762 0.326095238,39.351619 0.326095238,48 C0.326095238,56.648381 2.45790476,64.6247619 6.72,71.9299048 C10.9828571,79.232 16.7657143,85.016381 24.0700952,89.2792381 C31.3744762,93.5420952 39.3508571,95.6731429 48,95.6731429 C56.6491429,95.6731429 64.6262857,93.5420952 71.9299048,89.2792381 C79.2335238,85.0171429 85.016381,79.2335238 89.2792381,71.9299048 C93.5413333,64.6247619 95.672381,56.647619 95.672381,48 C95.672381,39.351619 93.5413333,31.3737143 89.28,24.0700952 C85.0171429,16.7664762 79.2342857,10.983619 71.9306667,6.7207619 Z M53.9626667,73.0834286 C53.5474286,72.5874286 53.4034286,72.1729524 53.528381,71.8407619 C53.4872381,72.048 53.3417143,72.2339048 53.0940952,72.3992381 C52.8868571,72.1508571 52.5135238,71.84 51.976381,71.4681905 C51.4377143,71.0948571 51.0659048,70.7847619 50.8586667,70.535619 C50.775619,70.4121905 50.6620952,70.2361905 50.5173333,70.008381 C50.3725714,69.7805714 50.1866667,69.4811429 49.9588571,69.1085714 C49.7325714,68.736 49.5672381,68.4152381 49.4628571,68.1455238 C49.36,67.8765714 49.3508571,67.7219048 49.432381,67.6807619 C48.6460952,68.0129524 47.5078095,67.7851429 46.0182857,66.9980952 C45.7287619,66.8327619 45.2937143,66.3984762 44.7146667,65.6944762 C44.135619,64.9912381 43.5352381,64.6811429 42.9142857,64.7634286 C42.7078095,64.8045714 42.4281905,64.8769524 42.0761905,64.9805714 C41.7249524,65.0841905 41.4247619,65.1352381 41.176381,65.1352381 C40.928,65.1352381 40.5965714,65.0529524 40.1828571,64.8868571 C39.8521905,64.7626667 39.4072381,64.5241905 38.8487619,64.1729524 C38.2902857,63.8217143 37.9070476,63.6030476 37.7005714,63.5215238 C37.1626667,63.232 36.8937143,63.0872381 36.8937143,63.0872381 L35.9001905,62.592 C35.6518095,62.4678095 35.3927619,62.272 35.1238095,62.0022857 C34.8548571,61.7333333 34.679619,61.4537143 34.5965714,61.1641905 C34.5142857,60.9158095 34.4106667,60.4190476 34.2864762,59.6739048 C34.1622857,58.9287619 33.9961905,58.3908571 33.7897143,58.0601905 C33.5420952,57.6464762 33.1900952,57.2327619 32.7344762,56.8190476 C32.279619,56.4053333 31.8659048,56.1980952 31.4933333,56.1980952 C31.8247619,56.1980952 31.8247619,55.92 31.4933333,55.36 C31.1619048,54.8 30.872381,54.3969524 30.624,54.1493333 C30.5409524,54.0662857 30.2925714,53.7980952 29.8788571,53.3417143 C29.4651429,52.8860952 29.1131429,52.4944762 28.823619,52.1622857 C28.5340952,51.8308571 28.2849524,51.448381 28.0784762,51.0133333 C27.872,50.5782857 27.8300952,50.2171429 27.9542857,49.9268571 C27.9954286,49.8857143 27.9542857,49.8232381 27.8300952,49.7409524 C27.7059048,49.6586667 27.5512381,49.5748571 27.3645714,49.4925714 C27.1786667,49.4102857 27.0026667,49.3379048 26.8373333,49.2754286 C26.6712381,49.2137143 26.5470476,49.1824762 26.4647619,49.1824762 C26.5478095,49.3493333 26.6407619,49.648 26.744381,50.0830476 C26.848,50.5180952 26.9615238,50.8388571 27.0857143,51.0460952 C27.1687619,51.2106667 27.52,51.8118095 28.1409524,52.8449524 C29.2175238,54.5828571 29.7135238,55.8674286 29.6312381,56.6948571 C29.3828571,56.776381 29.2167619,56.7367619 29.1344762,56.5706667 C29.0514286,56.4060952 28.9889524,56.1782857 28.9478095,55.888 C28.9066667,55.5992381 28.8655238,55.392 28.823619,55.2678095 C28.6994286,55.0186667 28.3786667,54.7497143 27.8613333,54.4594286 C27.344,54.1706667 27.0232381,53.880381 26.8990476,53.5900952 C26.9409524,53.5900952 26.992,53.5710476 27.0544762,53.528381 C27.1169524,53.4864762 27.1687619,53.4666667 27.2099048,53.4666667 C27.2518095,53.0948571 27.0346667,52.6186667 26.5584762,52.0388571 C26.0822857,51.4590476 25.8864762,51.0453333 25.9687619,50.7969524 C25.6373333,50.5485714 25.3478095,50.0624762 25.0994286,49.3386667 C24.8510476,48.6140952 24.6438095,48.1485714 24.4784762,47.9413333 C24.3131429,47.6937143 24.1066667,47.4765714 23.8582857,47.2899048 C23.6099048,47.104 23.2998095,46.8975238 22.9272381,46.6697143 C22.5546667,46.4419048 22.3062857,46.2872381 22.1820952,46.2041905 C22.0990476,46.1638095 21.9337143,45.9779048 21.6853333,45.6464762 C20.32,43.9908571 19.9062857,43.1009524 20.4441905,42.9767619 C19.9062857,43.1009524 19.4613333,42.6979048 19.1093333,41.7660952 C18.7573333,40.8350476 18.6438095,40.120381 18.768,39.624381 L18.6438095,39.5626667 C18.6857143,39.3965714 18.7062857,38.9112381 18.7062857,38.103619 C18.7062857,37.296 18.7580952,36.5615238 18.8617143,35.8994286 C18.9653333,35.2373333 19.1619048,34.9059048 19.4514286,34.9059048 C19.1619048,34.9470476 18.9447619,34.688 18.8,34.1302857 C18.6552381,33.5710476 18.6445714,33.1878095 18.7687619,32.9813333 C18.8099048,32.8571429 18.9965714,32.9409524 19.3272381,33.2297143 C19.6579048,33.5184762 19.8445714,33.7059048 19.8857143,33.7881905 C20.423619,33.4979048 20.6308571,33.1260952 20.5066667,32.6704762 C20.423619,32.5051429 19.9893333,32.0708571 19.2030476,31.3668571 C17.4232381,30.2087619 16.5127619,29.6495238 16.471619,29.6906667 C16.7192381,29.2358095 16.6575238,28.8426667 16.2849524,28.5112381 C15.8712381,28.759619 15.6335238,28.8213333 15.5710476,28.6979048 C15.5093333,28.5737143 15.4575238,28.3466667 15.415619,28.0152381 C15.3744762,27.6845714 15.2708571,27.4986667 15.1055238,27.4567619 C14.8982857,27.415619 14.6499048,27.2502857 14.360381,26.9607619 C18.0434286,21.0841905 22.9059048,16.4906667 28.9478095,13.1794286 C29.1961905,13.1382857 29.6510476,13.1177143 30.3131429,13.1177143 C30.6438095,13.1588571 30.9546667,13.2624762 31.2441905,13.4278095 C31.5337143,13.5931429 31.8339048,13.8209524 32.144,14.1104762 C32.4548571,14.3992381 32.6925714,14.6064762 32.8579048,14.7306667 C32.9409524,14.4822857 32.8373333,14.1097143 32.5478095,13.6129524 C32.6300952,13.3645714 33.0857143,13.1161905 33.9131429,12.8678095 C34.8647619,12.743619 35.4857143,12.7641905 35.7752381,12.9302857 C35.527619,12.5577143 35.1139048,12.040381 34.5340952,11.3782857 L34.224,11.688381 C33.8925714,11.3988571 33.024,11.543619 31.6167619,12.1226667 C31.5344762,12.1638095 31.3272381,12.2780952 30.9958095,12.464 C30.6651429,12.6499048 30.3954286,12.7847619 30.1889524,12.8670476 C29.9405714,12.9500952 29.6921905,12.9706667 29.4438095,12.9295238 C31.4300952,11.8537143 33.3752381,11.0041905 35.2792381,10.384 C35.4026667,10.4662857 35.6099048,10.6422857 35.8994286,10.9112381 C36.1889524,11.1801905 36.4167619,11.3767619 36.5820952,11.5009524 C36.4579048,11.4186667 36.3748571,11.4590476 36.3337143,11.6251429 C36.168381,12.1211429 36.168381,12.5348571 36.3337143,12.8662857 C36.5401905,13.1565714 36.8198095,13.3211429 37.1718095,13.3630476 C37.5238095,13.4041905 37.9474286,13.383619 38.4441905,13.3005714 C38.9409524,13.2182857 39.272381,13.176381 39.4377143,13.176381 L40.0586667,13.2388571 C41.3828571,13.3630476 41.9001905,13.2388571 41.6106667,12.8662857 C41.7348571,13.032381 41.879619,13.3737143 42.0449524,13.8910476 C42.2102857,14.408381 42.3969524,14.7710476 42.6034286,14.9775238 C42.8106667,14.8114286 42.8518095,14.5219048 42.727619,14.1081905 C42.6034286,13.6944762 42.6034286,13.4041905 42.727619,13.2388571 C42.7687619,13.1565714 42.8929524,13.0727619 43.1001905,12.9904762 C43.3074286,12.9081905 43.5451429,12.8152381 43.8140952,12.711619 C44.0830476,12.608 44.2590476,12.535619 44.3420952,12.4944762 C44.5904762,12.328381 44.424381,12.0388571 43.8453333,11.6251429 C43.7622857,11.5832381 43.5870476,11.5215238 43.3180952,11.4384762 C43.0491429,11.3569524 42.8106667,11.2731429 42.6041905,11.1908571 C42.3977143,11.1085714 42.1805714,10.9942857 41.9527619,10.8495238 C41.7249524,10.7047619 41.6213333,10.5394286 41.6419048,10.3527619 C41.6624762,10.1660952 41.7767619,9.92838095 41.9832381,9.63885714 C42.231619,9.43238095 42.6354286,9.34933333 43.1939048,9.39047619 C43.752381,9.43161905 44.1767619,9.53447619 44.4662857,9.70057143 C45.584,10.3215238 45.7493333,10.8807619 44.9630476,11.3767619 C45.3775238,11.4179048 45.8742857,11.5832381 46.4533333,11.8727619 C47.032381,12.1630476 47.2601905,12.4731429 47.136,12.8045714 C47.4674286,12.183619 47.7980952,11.8727619 48.1295238,11.8727619 C48.336,11.9146667 48.5333333,12.1942857 48.7192381,12.711619 C48.9051429,13.2289524 49.0186667,13.5078095 49.0598095,13.5497143 C49.392,14.0045714 49.7211429,14.1081905 50.0540952,13.8598095 C50.3847619,13.6114286 50.7260952,13.2495238 51.0780952,12.7733333 C51.4293333,12.2979048 51.6259048,12.0807619 51.6670476,12.1219048 C51.2533333,11.9573333 51.2106667,11.7912381 51.543619,11.6259048 C52.1630476,11.2533333 52.7222857,11.1497143 53.2190476,11.3158095 C53.3424762,11.3980952 53.5093333,11.5847619 53.7150476,11.8735238 C54.0860952,12.6194286 54.023619,12.9706667 53.5291429,12.9295238 C53.9009524,13.2609524 54.0548571,13.6746667 53.9939048,14.1706667 C53.9321905,14.6674286 53.6099048,14.8952381 53.0308571,14.8533333 C52.824381,14.8533333 52.5234286,14.7497143 52.1302857,14.5432381 C51.7371429,14.3367619 51.4369524,14.2232381 51.2297143,14.2019048 C51.0224762,14.1805714 50.7329524,14.2948571 50.360381,14.5432381 C50.1950476,14.7504762 49.9779048,15.1024762 49.7089524,15.5984762 C49.4392381,16.096 49.2015238,16.4472381 48.9942857,16.6537143 C48.3740952,17.2746667 47.3386667,17.5024762 45.8902857,17.336381 C46.0144762,17.336381 46.0038095,17.4605714 45.8590476,17.7089524 C45.7135238,17.9573333 45.5177143,18.2369524 45.2693333,18.5470476 C45.0209524,18.8571429 44.8761905,19.0331429 44.8350476,19.0742857 C44.4624762,19.488 44.2140952,19.9641905 44.0899048,20.5020952 C44.0899048,20.5851429 44.0693333,20.8647619 44.0274286,21.3401905 C43.9855238,21.816381 43.9032381,22.1790476 43.7790476,22.4266667 C44.2758095,22.3024762 44.6689524,22.551619 44.9584762,23.1718095 C45.2068571,23.751619 45.2068571,24.0617143 44.9584762,24.103619 C46.3245714,23.8971429 47.5245714,23.9794286 48.56,24.352 C50.0495238,24.8899048 50.8990476,25.4278095 51.1055238,25.9657143 C51.3531429,25.5931429 51.9527619,25.5718095 52.9051429,25.9032381 C53.2777143,26.1097143 53.607619,26.7314286 53.8986667,27.7653333 C54.064,28.3855238 54.343619,28.9241905 54.7367619,29.3790476 C55.1306667,29.8339048 55.5535238,29.9580952 56.0099048,29.751619 L56.1950476,29.6274286 C56.3611429,29.5451429 56.4952381,29.472 56.5988571,29.4102857 C56.7024762,29.3485714 56.816,29.2655238 56.9394286,29.1619048 C57.064381,29.0582857 57.1367619,28.9653333 57.1565714,28.8830476 C57.176381,28.8007619 57.1459048,28.7169524 57.064381,28.6346667 C56.7740952,28.3862857 56.5569524,28.0449524 56.4129524,27.6106667 C56.2689524,27.176381 56.3001905,26.7931429 56.5059048,26.4617143 C56.6300952,26.296381 56.9607619,26.048 57.4994286,25.7165714 C58.0373333,25.3851429 58.3687619,25.0544762 58.4921905,24.7230476 C58.6590476,24.1851429 58.4518095,23.7401905 57.8727619,23.3881905 C57.2929524,23.0369524 57.0026667,22.7161905 57.0026667,22.4259048 C57.0026667,22.2186667 57.1375238,21.9710476 57.4057143,21.6807619 C57.6754286,21.3912381 57.7897143,21.1215238 57.7478095,20.8739048 C57.7478095,20.7489524 57.6746667,20.4906667 57.5306667,20.0975238 C57.3866667,19.703619 57.3028571,19.4140952 57.2822857,19.2281905 C57.2617143,19.0415238 57.3554286,18.824381 57.5611429,18.5767619 C57.8499048,18.4106667 58.5333333,18.4213333 59.6091429,18.6072381 C60.6849524,18.7939048 61.3889524,18.9904762 61.720381,19.1969524 C61.8453333,19.2792381 62.1142857,19.4034286 62.528,19.5695238 C62.9417143,19.7340952 63.304381,19.9100952 63.6152381,20.0967619 C63.9238095,20.2826667 64.1005714,20.4579048 64.1409524,20.624 L63.831619,20.624 C64.1211429,20.8731429 64.2971429,21.1619048 64.3580952,21.4933333 C64.4205714,21.8255238 64.2659048,22.0731429 63.8940952,22.2392381 C64.1409524,22.1973333 64.4739048,22.2598095 64.887619,22.4251429 C65.5497143,22.6735238 65.5702857,22.9013333 64.9493333,23.1078095 C65.0735238,23.0659048 65.2487619,23.0255238 65.4758095,22.983619 C65.703619,22.9424762 65.8788571,22.88 66.0038095,22.7977143 C66.0853333,22.7558095 66.1897143,22.6841905 66.3131429,22.5805714 C66.4380952,22.4769524 66.5302857,22.4144762 66.5927619,22.3946667 C66.6552381,22.3740952 66.7474286,22.3527619 66.872381,22.3321905 C66.9958095,22.311619 67.1192381,22.3428571 67.2434286,22.4251429 C67.2860952,22.4251429 67.3782857,22.3215238 67.5230476,22.1150476 C67.6662857,21.9085714 67.8232381,21.7013333 67.9878095,21.4948571 C68.1531429,21.288381 68.2971429,21.1847619 68.4220952,21.1847619 C68.5455238,21.1847619 68.6598095,21.2358095 68.7626667,21.3394286 C68.8670476,21.4430476 68.9485714,21.5565714 69.0110476,21.6807619 C69.0727619,21.8049524 69.1344762,21.9398095 69.1969524,22.0838095 C69.2594286,22.2285714 69.3097143,22.3428571 69.351619,22.4251429 C69.4339048,22.631619 69.6312381,22.8495238 69.9405714,23.0765714 C70.2506667,23.303619 70.4472381,23.5215238 70.5302857,23.728 C70.5721905,23.8521905 70.6529524,24.1630476 70.7779048,24.6598095 C70.9013333,25.1565714 71.0681905,25.4979048 71.2739048,25.6838095 C71.4811429,25.8704762 71.7912381,26.0251429 72.2049524,26.1493333 C72.288,26.1912381 72.4746667,26.1699048 72.7634286,26.087619 C73.0529524,26.0045714 73.2914286,25.984 73.4773333,26.0251429 C73.6647619,26.0662857 73.7569524,26.231619 73.7569524,26.5219048 C74.0053333,26.2735238 74.1287619,26.1074286 74.1287619,26.0251429 C74.1706667,26.5630476 74.304,26.9980952 74.5325714,27.3287619 C74.760381,27.6594286 75.1222857,27.8049524 75.6190476,27.7630476 L75.4948571,29.1291429 C75.3714286,29.335619 75.0605714,29.4902857 74.5630476,29.5939048 C74.0662857,29.6975238 73.7561905,29.7912381 73.6312381,29.8735238 C73.5078095,29.9146667 73.2068571,30.1630476 72.7314286,30.6186667 C72.2552381,31.0742857 72.0594286,31.3432381 72.1417143,31.4255238 C71.4392381,30.6392381 70.3832381,30.4114286 68.9767619,30.7428571 C67.4041905,30.9912381 66.327619,31.239619 65.7493333,31.488 C65.0872381,31.8194286 64.631619,32.1295238 64.3832381,32.4190476 C64.3413333,32.4601905 64.2704762,32.6057143 64.1660952,32.8533333 C64.0624762,33.1017143 63.959619,33.3295238 63.8567619,33.536 C63.752381,33.7424762 63.6601905,33.8460952 63.5779048,33.8460952 C63.8270476,33.8057143 64.1051429,33.608381 64.416,33.2571429 C64.7260952,32.9051429 64.9234286,32.7093333 65.0049524,32.6674286 C66.08,31.9641905 66.9699048,31.7158095 67.6777143,31.927619 C68.5874286,32.176 68.7321905,32.5074286 68.1112381,32.9211429 C68.0297143,33.0034286 67.8118095,33.0346667 67.4605714,33.0140952 C67.1093333,32.9935238 66.8708571,33.0034286 66.7459048,33.0453333 C67.1192381,33.127619 67.4293333,33.2419048 67.6784762,33.3859048 C67.9260952,33.5306667 67.9885714,33.7272381 67.864381,33.975619 C68.5257143,34.3481905 68.6506667,34.7619048 68.2369524,35.2175238 C67.6982857,35.7561905 67.0582857,35.9832381 66.312381,35.9001905 C66.4373333,35.9001905 66.4373333,35.9832381 66.312381,36.1485714 L65.256381,36.8312381 C65.1740952,36.871619 64.9051429,36.9752381 64.4495238,37.1413333 C63.9939048,37.3059048 63.6838095,37.4933333 63.5177143,37.6998095 C63.3942857,37.8651429 63.3318095,38.1135238 63.3318095,38.4457143 C63.3318095,38.7771429 63.3112381,39.0255238 63.2693333,39.1908571 C63.2289524,39.3569524 63.0628571,39.3973333 62.7740952,39.3150476 C62.6491429,39.5634286 62.2666667,39.76 61.6251429,39.904 C60.983619,40.0487619 60.56,40.2659048 60.3527619,40.5554286 C60.600381,40.8868571 60.5805714,41.2175238 60.2902857,41.5489524 C59.7935238,41.9634286 59.3584762,41.9215238 58.9866667,41.4247619 C58.7801905,41.5078095 58.6247619,41.7142857 58.5211429,42.0457143 C58.4182857,42.3771429 58.2620952,42.6049524 58.056381,42.728381 C58.3466667,43.184 58.304,43.5154286 57.9329524,43.7219048 C57.9740952,43.7219048 58.0670476,43.7638095 58.2118095,43.8460952 C58.3558095,43.928381 58.5112381,44.032 58.6773333,44.1561905 C58.8426667,44.280381 58.9455238,44.3428571 58.9866667,44.3428571 C58.8220952,44.7146667 58.5935238,44.9005714 58.304,44.9005714 C58.552381,45.5634286 58.2430476,46.288 57.3737143,47.0735238 C57.2068571,47.2388571 56.9485714,47.4041905 56.5965714,47.5702857 C56.2438095,47.735619 55.9238095,47.8697143 55.6335238,47.9733333 C55.3432381,48.0769524 55.1786667,48.1493333 55.1375238,48.1904762 C54.7238095,48.5638095 54.4129524,48.9462857 54.2064762,49.3394286 C54,49.7325714 53.9687619,50.1150476 54.1127619,50.487619 C54.2575238,50.8609524 54.6407619,51.1078095 55.2624762,51.2335238 L55.3226667,51.7295238 L55.3226667,52.8464762 L55.3851429,53.3432381 C55.4278095,53.6327619 55.4590476,53.8918095 55.4788571,54.120381 C55.4986667,54.3481905 55.4986667,54.6369524 55.4788571,54.9897143 C55.4590476,55.3409524 55.3653333,55.5375238 55.2,55.5779048 C55.0354286,55.6205714 54.807619,55.5779048 54.5173333,55.4537143 C54.1851429,55.288381 53.7927619,54.3779048 53.3371429,52.7230476 C53.2540952,52.3093333 53.0049524,51.8133333 52.5912381,51.2335238 C52.3847619,51.44 52.2087619,51.5740952 52.064,51.6358095 C51.9207619,51.6982857 51.816381,51.7097143 51.7554286,51.6670476 C51.6929524,51.6259048 51.5794286,51.5321905 51.4133333,51.3881905 C51.248,51.2441905 51.104,51.1291429 50.9790476,51.047619 C50.7725714,50.9234286 50.4106667,50.8198095 49.8925714,50.7375238 C49.376,50.6552381 49.0537143,50.5508571 48.9310476,50.4274286 C47.9367619,51.1733333 47.336381,50.9859048 47.1299048,49.8697143 C47.047619,50.0761905 47.0575238,50.3558095 47.1611429,50.7078095 C47.2647619,51.0598095 47.3165714,51.255619 47.3165714,51.2967619 C47.0270476,51.8354286 46.5721905,51.8765714 45.9512381,51.4201905 C45.7028571,51.1733333 45.1337143,51.1420952 44.2438095,51.328 C43.3539048,51.5139048 42.7641905,51.5451429 42.4746667,51.4201905 C42.5165714,51.4201905 42.5988571,51.4826667 42.7230476,51.607619 C42.8472381,51.6891429 42.9302857,51.7508571 42.9714286,51.7927619 C42.9295238,51.9588571 42.8678095,52.0822857 42.7847619,52.1653333 C42.7017143,52.2468571 42.6186667,52.2780952 42.536381,52.2582857 C42.4533333,52.2377143 42.360381,52.2377143 42.2567619,52.2582857 C42.1531429,52.2780952 42.0601905,52.3093333 41.9771429,52.3512381 C41.8118095,52.4746667 41.6053333,52.6918095 41.3569524,53.0019048 C41.1085714,53.312 40.9226667,53.5085714 40.7984762,53.5908571 C41.0460952,54.2521905 41.160381,54.759619 41.1398095,55.1108571 C41.1184762,55.463619 41.0567619,55.9809524 40.9531429,56.6628571 C40.8495238,57.3455238 40.7977143,57.8948571 40.7977143,58.3085714 C40.7977143,58.9699048 40.9942857,59.7371429 41.3874286,60.6057143 C41.7805714,61.4742857 42.2460952,62.0739048 42.784,62.4053333 C43.0742857,62.5714286 43.5710476,62.6742857 44.2742857,62.7146667 C44.9775238,62.7565714 45.4742857,62.7146667 45.7638095,62.5912381 C46.0121905,62.4678095 46.1980952,62.3222857 46.3222857,62.1577143 C46.4464762,61.991619 46.5500952,61.7531429 46.632381,61.4430476 C46.7154286,61.1337143 46.7779048,60.9165714 46.8190476,60.792381 C47.1085714,60.0060952 47.6464762,59.592381 48.432,59.5504762 C48.9302857,59.5085714 49.2906667,59.5619048 49.5192381,59.7051429 C49.7470476,59.8499048 49.84,60.0464762 49.7980952,60.2948571 C49.7561905,60.5432381 49.6739048,60.8015238 49.5504762,61.0712381 C49.4262857,61.3409524 49.2708571,61.639619 49.0849524,61.9718095 C48.8998095,62.304 48.7855238,62.551619 48.7451429,62.7177143 C48.6620952,63.0491429 48.5889524,63.5139048 48.528,64.1150476 C48.4655238,64.7146667 48.4129524,65.0773333 48.3718095,65.2015238 C48.4548571,65.2426667 48.7649524,65.2632381 49.3028571,65.2632381 C49.3028571,65.1809524 49.3340952,65.0460952 49.3965714,64.8601905 C49.4575238,64.6735238 49.4887619,64.56 49.4887619,64.5188571 C49.696,64.8502857 50.0274286,65.0354286 50.4830476,65.0773333 C50.9379048,65.1184762 51.2693333,64.9531429 51.4765714,64.5805714 C51.559619,64.7047619 51.808,65.015619 52.2224762,65.5131429 C52.6361905,66.008381 52.864,66.4220952 52.9051429,66.7542857 C52.9462857,66.920381 53.0285714,67.1885714 53.152,67.5619048 C53.2769524,67.9344762 53.3188571,68.1935238 53.2769524,68.3390476 C53.2358095,68.4822857 53.0285714,68.5554286 52.6567619,68.5554286 C52.4914286,68.5554286 52.3878095,68.6179048 52.3466667,68.7413333 C52.304,68.8662857 52.304,69.0201905 52.3466667,69.2068571 C52.3885714,69.3927619 52.440381,69.5687619 52.5013333,69.7340952 C52.5638095,69.8986667 52.6460952,70.0754286 52.7489524,70.2613333 C52.8540952,70.4464762 52.9051429,70.5607619 52.9051429,70.6019048 C53.6495238,71.9672381 54.663619,72.3398095 55.9466667,71.719619 C55.9466667,72.919619 55.656381,73.5809524 55.0765714,73.7051429 C54.7481905,73.7874286 54.376381,73.5786667 53.9626667,73.0834286 L53.9626667,73.0834286 Z M54.8899048,87.1070476 C54.808381,86.6933333 54.7664762,86.3626667 54.7710476,86.1158095 C54.728381,85.783619 54.8739048,85.3386667 55.2045714,84.7809524 C55.5352381,84.2232381 55.7005714,83.7980952 55.7005714,83.5085714 C55.0384762,83.3432381 54.7900952,82.8045714 54.9546667,81.8948571 C55.0377143,81.2739048 55.6373333,80.4464762 56.7542857,79.4118095 C57.5420952,78.7078095 57.7889524,77.7142857 57.5001905,76.432 C57.3752381,75.8940952 57.271619,75.1070476 57.1893333,74.072381 C57.1078095,73.0377143 57.024,72.3131429 56.9409524,71.8994286 C56.9409524,72.023619 57.1375238,72.1371429 57.5314286,72.2407619 C57.9245714,72.343619 58.1622857,72.4784762 58.2453333,72.6430476 C58.327619,72.519619 58.4304762,72.2918095 58.5554286,71.960381 C58.6788571,71.6289524 58.8038095,71.3813333 58.9264762,71.2152381 C59.0095238,71.0910476 59.1847619,70.936381 59.4544762,70.7497143 C59.7234286,70.5638095 59.8994286,70.4502857 59.9817143,70.4091429 C60.0632381,70.368 60.2499048,70.2339048 60.5394286,70.0060952 C60.8289524,69.7782857 61.0674286,69.6030476 61.2540952,69.4788571 C61.4415238,69.3546667 61.688381,69.2617143 61.9992381,69.2 C62.3100952,69.1375238 62.5264762,69.2304762 62.6499048,69.4788571 C62.8571429,69.7272381 62.8167619,70.1097143 62.5264762,70.6278095 C62.2361905,71.1451429 62.2361905,71.5078095 62.5264762,71.7150476 C62.568381,71.5900952 62.6087619,71.320381 62.6499048,70.9066667 C62.6918095,70.4929524 62.8167619,70.1820952 63.0232381,69.9748571 C63.2708571,69.7272381 63.5085714,69.5817143 63.7371429,69.5413333 C63.9641905,69.4986667 64.1706667,69.5299048 64.3565714,69.6342857 C64.5432381,69.7371429 64.760381,69.8811429 65.008,70.0685714 C65.256381,70.2537143 65.4841905,70.368 65.6906667,70.4091429 C66.3108571,70.615619 67.0567619,71.0712381 67.9260952,71.7744762 C67.8841905,71.7325714 67.8841905,71.6815238 67.9260952,71.6190476 C67.968,71.5573333 68.0495238,71.495619 68.1744762,71.4331429 C68.2979048,71.3721905 68.4114286,71.3097143 68.5150476,71.2472381 C68.6179048,71.1847619 68.7314286,71.1344762 68.855619,71.0925714 L69.0422857,71.0300952 C69.3310476,71.0300952 69.5382857,71.0102857 69.6617143,70.967619 C69.7851429,70.9264762 69.9626667,70.967619 70.1889524,71.0925714 C70.416,71.216 70.5721905,71.3089524 70.6537143,71.3714286 C70.7367619,71.4331429 70.8815238,71.5466667 71.088,71.7127619 C71.2944762,71.8780952 71.4407619,72.0022857 71.5215238,72.0845714 C71.6464762,72.1660952 71.8735238,72.312381 72.2041905,72.5188571 C72.536381,72.7253333 72.7946667,72.8906667 72.9813333,73.0148571 C73.168,73.1382857 73.3333333,73.3249524 73.4765714,73.5718095 C73.6213333,73.8217143 73.6746667,74.0906667 73.6327619,74.3801905 C73.8811429,74.4220952 74.3771429,74.5866667 75.1222857,74.8761905 C75.2472381,74.9584762 75.5047619,75.031619 75.8986667,75.0925714 C76.2925714,75.1550476 76.5508571,75.2487619 76.6750476,75.3721905 C70.6788571,81.7066667 63.4148571,85.6175238 54.8899048,87.1070476 L54.8899048,87.1070476 Z" id="Shape"></path>
            </g>
        </g>
    </g>
</svg>