<?xml version="1.0" encoding="UTF-8" standalone="no"?>
<svg width="204px" height="204px" viewBox="0 0 204 204" version="1.1" xmlns="http://www.w3.org/2000/svg" xmlns:xlink="http://www.w3.org/1999/xlink">
    <!-- Generator: Sketch 39 (31667) - http://www.bohemiancoding.com/sketch -->
    <title>precision</title>
    <desc>Created with Sketch.</desc>
    <defs></defs>
    <g id="Page-1" stroke="none" stroke-width="1" fill="none" fill-rule="evenodd">
        <g id="precision" transform="translate(4.000000, 4.000000)">
            <circle id="Oval" stroke="#00AB80" stroke-width="8" cx="98" cy="98" r="98"></circle>
            <g id="thumbs28" transform="translate(50.000000, 51.000000)" fill="#1EBA93">
                <path d="M92.144,51.6369231 C94.3163636,49.1099077 95.4029091,46.1220923 95.4029091,42.672 C95.4029091,39.5438769 94.2756364,36.8366769 92.0290909,34.5489231 C89.7774545,32.2619077 87.1112727,31.1187692 84.0305455,31.1187692 L67.6174545,31.1187692 C67.7752727,30.5575385 67.9338182,30.0760615 68.0909091,29.6750769 C68.248,29.2740923 68.4669091,28.8324923 68.7425455,28.3510154 C69.0181818,27.8695385 69.216,27.5084308 69.3345455,27.2684308 C70.0450909,25.9052308 70.5890909,24.7812923 70.9643636,23.8995692 C71.3396364,23.0163692 71.7134545,21.8134154 72.0894545,20.2892308 C72.4654545,18.7657846 72.6523636,17.2408615 72.6523636,15.7166769 C72.6523636,14.7544615 72.6414545,13.9716923 72.6225455,13.3705846 C72.6036364,12.7687385 72.5032727,11.8663385 72.3265455,10.6626462 C72.1483636,9.45969231 71.9112727,8.45686154 71.6152727,7.65489231 C71.3185455,6.85292308 70.8443636,5.94978462 70.1934545,4.94769231 C69.5410909,3.94412308 68.7512727,3.13255385 67.8225455,2.51076923 C66.8938182,1.88898462 65.7090909,1.36763077 64.2669091,0.946707692 C62.8247273,0.525784615 61.1956364,0.315323077 59.3774545,0.315323077 C58.3505455,0.315323077 57.4625455,0.696369231 56.7112727,1.45846154 C55.9214545,2.26043077 55.2494545,3.26326154 54.696,4.46621538 C54.1432727,5.66990769 53.7578182,6.71261538 53.5403636,7.59507692 C53.3229091,8.47753846 53.0756364,9.70116923 52.8,11.2652308 C52.4436364,12.9504 52.1774545,14.1629538 51.9992727,14.9051077 C51.8210909,15.6472615 51.4749091,16.6198154 50.9621818,17.8227692 C50.448,19.0264615 49.8363636,19.9886769 49.1250909,20.7108923 C47.8218182,22.0342154 45.8269091,24.4408615 43.1403636,27.9300923 C41.2043636,30.4969846 39.2094545,32.9235692 37.1556364,35.2098462 C35.1010909,37.4968615 33.6,38.6798769 32.6523636,38.7603692 C31.6654545,38.8401231 30.816,39.2514462 30.1047273,39.9936 C29.3934545,40.7357538 29.0378182,41.6086154 29.0378182,42.6107077 L29.0378182,81.1768615 C29.0378182,82.2195692 29.4130909,83.1116308 30.1636364,83.8537846 C30.9141818,84.5959385 31.8029091,84.9873231 32.8298182,85.0272 C34.2123636,85.0678154 37.3330909,85.9495385 42.192,87.6753231 C45.2334545,88.7172923 47.6130909,89.5104 49.3316364,90.0509538 C51.0494545,90.5922462 53.4501818,91.1741538 56.5294545,91.7959385 C59.6116364,92.4177231 62.4552727,92.7293538 65.0618182,92.7293538 L66.0690909,92.7293538 L70.5723636,92.7293538 L72.7054545,92.7293538 C77.9607273,92.6496 81.8501818,91.0848 84.3789091,88.0371692 C86.6698182,85.2694154 87.6370909,81.6391385 87.2821818,77.1470769 C88.8225455,75.6627692 89.8901818,73.7782154 90.4814545,71.4919385 C91.1527273,69.0461538 91.1527273,66.6993231 90.4814545,64.4536615 C92.2989091,62.0071385 93.1483636,59.2593231 93.0290909,56.2109538 C93.0327273,54.9260308 92.7374545,53.4025846 92.144,51.6369231 L92.144,51.6369231 Z" id="Shape"></path>
                <path d="M21.4545455,38.8216615 L4.38981818,38.8216615 C3.36218182,38.8216615 2.47345455,39.2027077 1.72290909,39.9648 C0.972363636,40.7268923 0.597090909,41.6292923 0.597090909,42.672 L0.597090909,81.1790769 C0.597090909,82.2210462 0.972363636,83.1234462 1.72290909,83.8862769 C2.47418182,84.6476308 3.36290909,85.0286769 4.38981818,85.0286769 L21.4545455,85.0286769 C22.4814545,85.0286769 23.3701818,84.6476308 24.1207273,83.8862769 C24.8712727,83.1234462 25.2465455,82.2210462 25.2465455,81.1790769 L25.2465455,42.672 C25.2465455,41.6292923 24.8712727,40.7268923 24.1207273,39.9648 C23.3701818,39.2027077 22.4814545,38.8216615 21.4545455,38.8216615 L21.4545455,38.8216615 Z M14.64,76.2144 C13.8894545,76.9565538 13.0007273,77.3272615 11.9738182,77.3272615 C10.9069091,77.3272615 10.008,76.9565538 9.27781818,76.2144 C8.54690909,75.4722462 8.18181818,74.5602462 8.18181818,73.4769231 C8.18181818,72.4342154 8.54690909,71.5310769 9.27781818,70.7697231 C10.008,70.0076308 10.9069091,69.6258462 11.9738182,69.6258462 C13.0007273,69.6258462 13.8894545,70.0076308 14.64,70.7697231 C15.3905455,71.5310769 15.7658182,72.4342154 15.7658182,73.4769231 C15.7658182,74.5602462 15.3912727,75.4722462 14.64,76.2144 L14.64,76.2144 Z" id="Shape"></path>
            </g>
        </g>
    </g>
</svg>