<?xml version="1.0" encoding="UTF-8" standalone="no"?>
<svg width="204px" height="204px" viewBox="0 0 204 204" version="1.1" xmlns="http://www.w3.org/2000/svg" xmlns:xlink="http://www.w3.org/1999/xlink">
    <!-- Generator: Sketch 39 (31667) - http://www.bohemiancoding.com/sketch -->
    <title>speed</title>
    <desc>Created with Sketch.</desc>
    <defs></defs>
    <g id="Page-1" stroke="none" stroke-width="1" fill="none" fill-rule="evenodd">
        <g id="speed" transform="translate(4.000000, 4.000000)">
            <circle id="Oval" stroke="#00AB80" stroke-width="8" cx="98" cy="98" r="98"></circle>
            <path d="M121.589884,74.6166232 C121.434808,74.6166232 121.20538,74.6555693 120.896644,74.7320452 L98.0508646,80.385602 L107.915556,53.6742457 C108.107454,53.2897415 108.204466,52.9441834 108.204466,52.6361552 C108.204466,51.9825689 107.953794,51.4153722 107.453868,50.9345649 C106.953942,50.4530496 106.338594,50.213 105.608531,50.213 L86.6856859,50.213 C86.0703376,50.213 85.5321734,50.385779 85.0704851,50.7320452 C84.6087969,51.0783114 84.3007687,51.5208807 84.1471086,52.0590449 L72.5510858,99.6554217 C72.3584797,100.57809 72.6084428,101.328688 73.3009752,101.905798 C73.8009014,102.329956 74.3964226,102.540265 75.088955,102.540265 C75.3969832,102.540265 75.6278274,102.521854 75.7814874,102.482908 L99.2043771,96.6558643 L87.8391984,143.271508 C87.6855384,143.886856 87.7719279,144.463966 88.0990751,145.001422 C88.4262223,145.541003 88.9169431,145.90568 89.5705294,146.098286 C89.9550336,146.174054 90.2248238,146.213 90.3784838,146.213 C91.4937584,146.213 92.3010047,145.732901 92.8016391,144.771286 L123.954975,78.02122 C124.378425,77.0978435 124.244592,76.251651 123.551351,75.4826427 C122.974949,74.9062405 122.320655,74.6180394 121.589884,74.6166232 Z" id="Shape" fill="#1EBA93"></path>
        </g>
    </g>
</svg>