<?xml version="1.0" ?><!DOCTYPE svg  PUBLIC '-//W3C//DTD SVG 1.1//EN'  'http://www.w3.org/Graphics/SVG/1.1/DTD/svg11.dtd'><svg enable-background="new 0 0 256 256" height="256px" id="Layer_1" version="1.1" viewBox="0 0 256 256" width="256px" xml:space="preserve" xmlns="http://www.w3.org/2000/svg" xmlns:xlink="http://www.w3.org/1999/xlink"><g><g><path clip-rule="evenodd" d="M228.994,48.384c-6.017,0-10.893,4.707-10.893,10.516     c0,5.617,4.046,17.743,10.893,17.743c6.846,0,10.895-12.126,10.895-17.743C239.889,53.091,235.009,48.384,228.994,48.384     L228.994,48.384z M256,130l-1.86-39.866c-0.095-1.623-0.37-3.69-1.652-4.697c-1.347-1.058-4.045-1.563-5.729-2.03     c-4.186-1.156-7.061-2.208-11.282-3.402l-6.482,6.462l-6.481-6.464c-3.362,0.951-5.869,1.809-8.865,2.704     c1.521,1.94,1.975,4.358,2.228,6.878l2.84,28.179L217.773,130H256L256,130z" fill="#2B78C2" fill-rule="evenodd"/><path clip-rule="evenodd" d="M185.519,50.71c-6.015,0-10.892,4.708-10.892,10.517     c0,5.616,4.047,17.741,10.892,17.741c6.847,0,10.895-12.125,10.895-17.741C196.413,55.417,191.535,50.71,185.519,50.71     L185.519,50.71z M212.14,152l1.321-31.934l-2.795-27.677c-0.163-1.617-0.37-3.653-1.653-4.662     c-1.348-1.057-4.046-1.544-5.728-2.01c-4.188-1.157-7.063-2.2-11.283-3.393l-6.483,6.465l-2.748-2.739     c0.894,2.527,1.748,5.067,2.58,7.604c1.121,3.418,1.484,7.029,0.844,10.584c-2.416,13.4-6.041,26.99-9.434,40.2     c-0.873,3.396-2.75,5.562-5.114,7.562H212.14L212.14,152z" fill="#2B78C2" fill-rule="evenodd"/><path clip-rule="evenodd" d="M27.005,49.547c6.016,0,10.893,4.708,10.893,10.516     c0,5.617-4.047,17.742-10.893,17.742c-6.845,0-10.894-12.125-10.894-17.742C16.112,54.254,20.991,49.547,27.005,49.547     L27.005,49.547z M0,133l1.858-41.948c0.164-1.617,0.371-3.566,1.654-4.575c1.348-1.058,4.045-1.501,5.728-1.967     c4.187-1.157,7.062-2.178,11.282-3.372l6.483,6.476l6.481-6.455c3.362,0.95,5.87,1.812,8.866,2.706     c-1.521,1.942-1.976,4.362-2.229,6.881l-2.84,27.936L38.227,133H0L0,133z" fill="#2B78C2" fill-rule="evenodd"/><path clip-rule="evenodd" d="M70.479,50.71c6.017,0,10.894,4.708,10.894,10.517     c0,5.616-4.047,17.741-10.894,17.741c-6.845,0-10.894-12.125-10.894-17.741C59.586,55.417,64.465,50.71,70.479,50.71     L70.479,50.71z M43.86,144l-1.321-23.862l2.795-27.713c0.163-1.617,0.371-3.671,1.654-4.679c1.347-1.058,4.044-1.554,5.728-2.02     c4.186-1.157,7.061-2.205,11.281-3.398l6.482,6.463l2.75-2.74c-0.892,2.527-1.749,5.067-2.58,7.604     c-1.122,3.418-1.484,7.005-0.843,10.56C72.193,117.451,75.757,131,79.114,144H43.86L43.86,144z" fill="#2B78C2" fill-rule="evenodd"/><path clip-rule="evenodd" d="M97.56,136.806c0.113-18.583,1.233-36.239,1.572-55.074     c-3.696,5.959-5.403,11.714-7.519,18.593C92.971,110.412,94.646,124.245,97.56,136.806L97.56,136.806z M153.344,51.907     c-5.971-1.651-9.204-3.148-15.229-4.851c-1.736,6.926-3.881,20.861-7.093,27.265l-0.466-17.134L128,55.496l-2.556,1.692     l-0.466,17.134c-3.211-6.404-5.358-20.339-7.092-27.265L95.832,53.8c-1.305,0.361-0.815,1.457-1.676,2.65     c-8.438,11.72-13.595,25.658-17.979,39.018c-0.54,1.646-1.234,4.476-0.646,7.739c2.057,11.411,7.039,30.913,9.342,39.879     c1.874,7.294,9.992,6.838,12.711,2.078c0.015,1.16,0.033,5.836,0.058,6.836h3.352c1.721,34,5.323,68.604,6.11,101.363     c0.032,1.367,1.165,2.637,2.54,2.637h11.058c1.369,0,2.504-1.129,2.538-2.495l2.552-97.291c0.08-3.102,4.334-3.108,4.416-0.007     l2.551,97.302c0.034,1.366,1.168,2.491,2.538,2.491h11.058c1.375,0,2.507-1.27,2.541-2.637     c0.786-32.76,4.388-67.363,6.109-101.363h3.352c0.023-1,0.042-5.676,0.059-6.836c2.719,4.76,10.838,5.147,12.71-2.146     c2.306-8.966,7.287-28.434,9.343-39.845c0.59-3.263-0.105-6.075-0.646-7.722c-4.382-13.36-9.539-27.291-17.978-39.01     C159.718,53.486,164.294,54.944,153.344,51.907L153.344,51.907z M158.439,136.806c-0.113-18.583-1.234-36.239-1.571-55.074     c3.694,5.959,5.538,11.888,7.518,18.593C163.028,110.412,161.354,124.245,158.439,136.806L158.439,136.806z M128,41.933     c-10.146-0.001-16.145-17.971-16.145-26.294c0-8.612,7.229-15.587,16.145-15.588c8.916,0.001,16.145,6.976,16.145,15.588     C144.145,23.962,138.146,41.932,128,41.933L128,41.933z" fill="#3B4552" fill-rule="evenodd"/></g></g></svg>