<?xml version="1.0" ?><!DOCTYPE svg  PUBLIC '-//W3C//DTD SVG 1.1//EN'  'http://www.w3.org/Graphics/SVG/1.1/DTD/svg11.dtd'><svg enable-background="new 0 0 256 256" height="256px" id="Layer_1" version="1.1" viewBox="0 0 256 256" width="256px" xml:space="preserve" xmlns="http://www.w3.org/2000/svg" xmlns:xlink="http://www.w3.org/1999/xlink"><g><g><path d="M152.476,67.976c1.861,0,3.535-0.743,4.734-1.941l0.02-0.02c1.197-1.198,1.939-2.872,1.939-4.734     c0-1.86-0.742-3.534-1.939-4.732l-0.01-0.011l-0.01,0.011c-1.211-1.211-2.887-1.96-4.734-1.96c-1.861,0-3.535,0.742-4.732,1.94     l-0.02,0.02c-1.199,1.198-1.941,2.872-1.941,4.732c0,1.848,0.75,3.523,1.961,4.734l0.195,0.208     C149.12,67.311,150.714,67.976,152.476,67.976L152.476,67.976z M191.8,169.306c1.477-1.097,2.372-2.699,2.624-4.398     c0.25-1.709-0.145-3.509-1.243-4.989c-1.098-1.477-2.699-2.372-4.398-2.622c-1.709-0.252-3.508,0.144-4.99,1.242     c-1.477,1.097-2.373,2.7-2.623,4.398c-0.25,1.708,0.145,3.507,1.244,4.989c1.096,1.477,2.699,2.371,4.396,2.622     C188.519,170.799,190.319,170.404,191.8,169.306L191.8,169.306z M201.266,173.591c-0.977,1.356-2.176,2.588-3.59,3.639     c-3.681,2.73-8.11,3.716-12.296,3.098c-0.566-0.084-1.131-0.196-1.686-0.338c-3.639,5.578-7.719,10.883-12.213,15.857     c-0.639-3.738-1.361-7.383-2.189-10.842c2.43-3.002,4.705-6.114,6.824-9.323c-0.58-0.577-1.125-1.205-1.627-1.881     c-2.066-2.781-3.133-5.995-3.262-9.208c-3.557-0.571-7.145-0.982-10.754-1.229c-3.373-4.35-7.641-7.365-12.365-9.677v-39.322     h-21.273c0.283-0.254,0.553-0.522,0.807-0.807c2.681-3.001,5.425-4.229,7.259-7.926h13.207V77.285     c-2.672-0.731-5.078-2.119-7.041-3.979c-0.109-0.094-0.219-0.191-0.322-0.295c-2.25-2.249-3.855-5.144-4.521-8.38     c-1.143-0.146-2.283-0.307-3.42-0.482l-0.021-0.102c-0.752-3.473-1.865-6.549-3.449-9.355c2.467,0.483,4.951,0.888,7.449,1.214     c0.83-2.402,2.195-4.562,3.957-6.33l0.006-0.006l0.01-0.009l0.01-0.011c2.016-2.009,4.533-3.506,7.344-4.275V21.784     c-8.928,8.128-16.492,17.492-22.511,27.725c-0.721-0.805-1.496-1.591-2.334-2.361c-1.367-1.26-2.814-2.404-4.262-3.551     c5.518-9.098,12.177-17.529,19.876-25.067c-13.345,1.967-25.763,6.785-36.615,13.815c-3.549-1.496-7.299-2.567-11.172-3.159     c-0.918-0.162-1.877-0.283-2.857-0.369c17.653-13.988,39.975-22.342,64.242-22.342c28.586,0,54.47,11.589,73.202,30.323     C244.412,55.53,256,81.415,256,109.999c0,28.586-11.588,54.469-30.322,73.201c-13.982,13.984-31.952,23.985-52.052,28.159     c-0.406-3.67-0.875-7.366-1.422-11.01c15.445-3.354,29.45-10.567,40.952-20.58C209.301,177.483,205.33,175.42,201.266,173.591     L201.266,173.591z M173.19,156.073c1.121-2.08,2.703-3.955,4.727-5.459c3.557-2.64,7.814-3.647,11.871-3.155     c2.326-7.042,4.002-14.328,4.987-21.767c-2.413-0.83-4.573-2.197-6.337-3.961l0.01-0.011l-0.01-0.009     c-2.01-2.009-3.506-4.529-4.275-7.347h-27.322v40.067C162.335,154.629,167.796,155.18,173.19,156.073L173.19,156.073z      M197.863,150.748c1.201,0.92,2.295,2.02,3.242,3.295c2.527,3.405,3.561,7.457,3.209,11.358     c5.279,2.348,10.412,5.058,15.355,8.116c14.73-15.577,24.105-36.279,25.168-59.152h-28.656c-0.77,2.826-2.268,5.354-4.279,7.366     c-2.256,2.255-5.158,3.864-8.404,4.525C202.424,134.625,200.525,142.826,197.863,150.748L197.863,150.748z M200.172,116.694     c1.848,0,3.521-0.75,4.732-1.96c1.211-1.211,1.961-2.887,1.961-4.735c0-1.848-0.75-3.523-1.961-4.733l-0.195-0.209     c-1.182-1.087-2.777-1.752-4.537-1.752c-1.85,0-3.525,0.75-4.736,1.961c-1.211,1.21-1.962,2.886-1.962,4.733     c0,1.858,0.749,3.534,1.952,4.744l0.01-0.009C196.646,115.944,198.322,116.694,200.172,116.694L200.172,116.694z      M184.159,105.633c0.77-2.827,2.268-5.353,4.279-7.365c1.762-1.763,3.92-3.129,6.331-3.959     c-1.522-11.478-4.698-22.599-9.366-33.034c-5.475,1.469-11.043,2.573-16.668,3.306c-0.658,3.239-2.268,6.142-4.523,8.406     l-0.006,0.006l-0.01,0.009l-0.01,0.011c-2.016,2.01-4.533,3.505-7.346,4.275v28.346H184.159L184.159,105.633z M203.502,93.746     c3.086,0.633,5.865,2.131,8.078,4.228c0.109,0.093,0.219,0.19,0.322,0.294c2.012,2.013,3.51,4.538,4.279,7.365h28.656     c-1.063-22.875-10.439-43.579-25.174-59.158c-8.162,5.051-16.838,9.146-25.853,12.236     C198.662,69.8,201.947,81.591,203.502,93.746L203.502,93.746z M168.153,55.862c4.5-0.601,8.947-1.453,13.324-2.555     c-6.33-11.727-14.627-22.408-24.637-31.526v23.491c2.826,0.77,5.354,2.267,7.365,4.278l-0.01,0.011     C165.954,51.323,167.321,53.471,168.153,55.862L168.153,55.862z M190.03,50.811c8.034-2.678,15.794-6.217,23.136-10.572     c-13.008-11.328-29.218-19.073-47.093-21.707C175.784,28.035,183.843,38.945,190.03,50.811L190.03,50.811z" fill="#2B78C2"/><path clip-rule="evenodd" d="M83.888,154.878l-8.262,5.412l2.473,9.806l-4.162,26.527     c2.873,7.466,6.104,14.963,9.895,22.915c3.783-8.038,7.041-15.627,9.961-23.204l-4.117-26.238l2.473-9.806L83.888,154.878     L83.888,154.878z" fill="#2B78C2" fill-rule="evenodd"/><path clip-rule="evenodd" d="M68.374,201.449c-3.131-7.593-6.105-16.485-8.771-25.331     c-2.557-8.409-4.953-17.275-7.424-27.09l-0.303-1.199c-13.125,5.092-31.422,6.647-37.959,19.876     c-6.73,13.562-12.818,50.836-13.91,74.909c-0.084,1.867,0.662,3.514,1.957,4.866c1.293,1.355,2.904,2.045,4.777,2.045h154.29     c1.875,0,3.486-0.689,4.779-2.045c1.295-1.353,2.166-3,2.082-4.866c-1.092-24.073-7.305-61.348-14.037-74.909     c-6.535-13.229-24.834-14.784-37.957-19.876l-0.387,1.532l-0.012,0.049l-0.023,0.094l-0.369,1.452l-0.006,0.026     c-4.207,16.515-10.748,40.001-17.879,55.468c-3.788,9.147-8.129,18.496-13.334,28.771     C77.591,223.067,72.614,212.21,68.374,201.449L68.374,201.449z M58.78,46.545c14.848-12.955,35.898-12.66,50.61,0.356     c5.9,5.221,11.705,7.729,13.936,18.046c1.604,7.421,0.078,16.565-1.623,23.938l-0.014,0.068c2.125-0.545,4.244-0.428,4.885,1.887     c0.84,3.015,0.65,5.787-0.262,8.378c-0.844,2.393-4.297,4.571-6.123,6.618c-0.781,0.872-2.455,1.271-3.627,1.18     c-6.609,16.771-18.107,31.762-32.674,31.762c-14.568,0-26.066-14.989-32.676-31.762c-1.172,0.093-2.846-0.308-3.627-1.18     c-1.828-2.047-5.281-4.226-6.123-6.618c-0.914-2.591-1.105-5.363-0.264-8.378c0.639-2.311,2.752-2.432,4.875-1.889     c-1.709-7.384-3.248-16.561-1.639-24.004C46.696,54.478,52.585,51.986,58.78,46.545L58.78,46.545z" fill="#3B4552" fill-rule="evenodd"/></g></g></svg>