<?xml version="1.0" ?><!DOCTYPE svg  PUBLIC '-//W3C//DTD SVG 1.1//EN'  'http://www.w3.org/Graphics/SVG/1.1/DTD/svg11.dtd'><svg enable-background="new 0 0 256 256" height="256px" id="Layer_1" version="1.1" viewBox="0 0 256 256" width="256px" xml:space="preserve" xmlns="http://www.w3.org/2000/svg" xmlns:xlink="http://www.w3.org/1999/xlink"><g><g><g><path d="M189.229,225.123c-0.844-2.052-1.883-3.561-4.09-3.561H70.861c-2.206,0-3.25,1.521-4.09,3.561      l-4.655,11.296c-0.842,2.046,1.874,4.092,4.091,4.092c69.211,0,54.376,0,123.586,0c2.217,0,4.934-2.043,4.09-4.092      L189.229,225.123z" fill="#3B4552"/><path d="M231.816,15.489H24.182C10.872,15.489,0,26.362,0,39.672v153.677c0,13.31,10.871,24.183,24.182,24.183      c69.35,0,138.287,0,207.634,0c13.311,0,24.184-10.872,24.184-24.183V39.672C256,26.361,245.127,15.489,231.816,15.489z       M231.146,205.581c-69.271,0-136.939,0-206.21,0c-7.149,0-13.021-5.873-13.021-13.022l0.086-152.018      c0-7.149,5.872-13.022,13.021-13.022l205.976,0.022c7.15,0,13.021,5.872,13.021,13.022l0.148,151.995      C244.168,199.709,238.297,205.581,231.146,205.581z" fill="#3B4552"/><path d="M231.816,60.678L189,60.62V39.052c0-1.896-1.635-3.511-3.51-3.511L24.526,35.598      c-1.9,0-3.508,1.637-3.508,3.511L21.03,169.11c0,1.891,1.524,3.51,3.415,3.51h30.569l0.08,21.423c0,1.886,1.621,3.51,3.51,3.51      h173.212c1.883,0,3.213-1.636,3.213-3.51l-0.035-129.855C234.994,62.292,233.691,60.678,231.816,60.678z M173.555,43.553h7.186      c3.826,0,3.826,5.819,0,5.819h-7.186C169.729,49.372,169.729,43.553,173.555,43.553z M29.057,43.493h30.578      c3.826,0,3.826,5.817,0,5.817H29.057C25.231,49.311,25.231,43.493,29.057,43.493z M27,165.62l0.003-108.991h155.959v108.946      L27,165.62z M229,191.62H61l-0.019-19h24.02l0.032,9.906c11.228,0,22.455,0,33.682,0L153,182.62l-0.053-10.136l32.324,0.114      c1.879,0,3.721-1.831,3.721-3.72v-2.543l25.801,0.211c5.152,0,4.559-7.006,0-7.006h-26.012v-8.313h26.014      c4.824,0,4.824-7.336,0-7.336h-26.014v-19.301h24.736c6.504,0,6.504-9.892,0-9.892h-24.736v-6.873h24.736      c6.504,0,6.504-9.891,0-9.891h-24.736V81.519L229,81.621V191.62z M227.477,74.26h-7.186c-3.826,0-3.826-5.818,0-5.818h7.186      C231.303,68.441,231.303,74.26,227.477,74.26z" fill="#3B4552"/><path d="M214.795,175.691h-44.744c-4.824,0-4.824,7.836,0,7.836h44.744      C219.619,183.527,219.619,175.691,214.795,175.691z" fill="#3B4552"/></g><path clip-rule="evenodd" d="M72.17,63.968c9.011,0,16.314,7.055,16.314,15.759     c0,8.415-6.061,26.584-16.314,26.584c-10.252,0-16.314-18.169-16.314-26.584C55.856,71.022,63.161,63.968,72.17,63.968     L72.17,63.968z M106.181,156.848H72.17h-34.01c0-14.261,1.266-25.011,6.195-33.136c4.929-8.126,10.713-11.318,17.877-13.32     c1.19,7.638,4.268,14.693,6.418,16.967l0.748-11.723l2.772-3.086l2.771,3.086l0.713,11.262c2.283-2.596,5.412-9.834,6.455-16.506     c7.162,2.004,12.947,5.195,17.877,13.321C104.915,131.839,106.181,142.587,106.181,156.848L106.181,156.848z" fill="#2B78C2" fill-rule="evenodd"/><path clip-rule="evenodd" d="M123.506,125.541c-2.025,0-3.668-1.79-3.668-4s1.643-4,3.668-4     h44.742c2.025,0,3.67,1.79,3.67,4s-1.645,4-3.67,4H123.506L123.506,125.541z" fill="#3B4552" fill-rule="evenodd"/><path clip-rule="evenodd" d="M123.506,141.521c-2.025,0-3.668-1.787-3.668-3.99     s1.643-3.99,3.668-3.99h44.742c2.025,0,3.668,1.787,3.668,3.99s-1.643,3.99-3.668,3.99H123.506L123.506,141.521z" fill="#3B4552" fill-rule="evenodd"/><path clip-rule="evenodd" d="M123.506,157.521c-2.025,0-3.668-1.786-3.668-3.99     c0-2.205,1.643-3.99,3.668-3.99h44.742c2.025,0,3.67,1.785,3.67,3.99c0,2.204-1.645,3.99-3.67,3.99H123.506L123.506,157.521z" fill="#3B4552" fill-rule="evenodd"/><path clip-rule="evenodd" d="M124.785,98.432c-2.732,0-4.946-2.214-4.946-4.945     c0-2.732,2.214-4.945,4.946-4.945h42.186c2.73,0,4.945,2.213,4.945,4.945c0,2.731-2.215,4.945-4.945,4.945H124.785     L124.785,98.432z" fill="#3B4552" fill-rule="evenodd"/><path clip-rule="evenodd" d="M124.785,81.432c-2.732,0-4.946-2.214-4.946-4.945     c0-2.732,2.214-4.945,4.946-4.945h42.186c2.73,0,4.945,2.213,4.945,4.945c0,2.731-2.215,4.945-4.945,4.945H124.785     L124.785,81.432z" fill="#3B4552" fill-rule="evenodd"/></g></g></svg>