<?xml version="1.0" ?><!DOCTYPE svg  PUBLIC '-//W3C//DTD SVG 1.1//EN'  'http://www.w3.org/Graphics/SVG/1.1/DTD/svg11.dtd'><svg enable-background="new 0 0 256 256" height="256px" id="Layer_1" version="1.1" viewBox="0 0 256 256" width="256px" xml:space="preserve" xmlns="http://www.w3.org/2000/svg" xmlns:xlink="http://www.w3.org/1999/xlink"><g><g><path clip-rule="evenodd" d="M150.517,41.951c1.097-0.199,2.118-0.014,2.452,1.193     c0.492,1.763,0.381,3.384-0.154,4.899c-0.492,1.4-2.511,2.675-3.581,3.872c-0.457,0.51-1.435,0.744-2.12,0.691     c-3.866,9.81-10.593,18.576-19.115,18.576c-8.519,0-15.245-8.767-19.111-18.576c-0.685,0.053-1.664-0.182-2.121-0.691     c-1.07-1.197-3.089-2.472-3.583-3.872c-0.533-1.515-0.645-3.136-0.154-4.899c0.334-1.205,1.351-1.39,2.446-1.195     c-0.98-4.304-1.486-9.628-0.552-13.951c2.286-10.579,13.113-16.362,23.075-16.362c8.836,0,13.91,2.109,15.731,6.488     C151.951,21.982,153.086,30.759,150.517,41.951L150.517,41.951z M127.999,82.417l-3.788,2.509l1.061,4.19l-3.099,19.476     c-4.76-9.497-9.55-21.845-12.122-32.115c-7.679,2.978-19.156,3.887-22.977,11.625c-3.938,7.933-5.75,25.521-6.391,39.603     c-0.049,1.096,0.311,2.056,1.066,2.847c0.758,0.793,1.701,1.197,2.798,1.197h86.906c1.096,0,2.039-0.404,2.796-1.197     c0.758-0.791,1.117-1.751,1.066-2.847c-0.641-14.082-2.45-31.67-6.389-39.603c-3.823-7.738-15.302-8.647-22.978-11.625     c-2.573,10.27-7.362,22.618-12.121,32.115l-3.101-19.476l1.059-4.19L127.999,82.417L127.999,82.417z M143.802,113.284h13.195     v4.097h-13.195V113.284L143.802,113.284z M193.532,165.619c3.892,9.647,10.55,18.18,18.955,18.18     c8.347,0,14.974-8.417,18.873-17.982c0.926,0.285,1.963,0.383,2.61-0.453c0.973-1.253,1.756-2.585,2.207-4.054     c0.466-1.519,0.563-3.144,0.135-4.912c-0.148-0.607-0.617-1.051-1.186-1.195c3.272-7.497,2.765-15.421-2.569-21.985     c-5.292-6.513-13.693-9.643-21.843-9.28l-0.449,0.023c0.445-1.307,0.594-2.673,0.357-4.625c-0.066-0.561-5.267,4.994-5.57,4.209     c-0.281-0.721-3.002-6.381-3.253-4.116c-0.396,3.573-1.637,6.083-2.326,7.488l-0.225,0.121c-1.759-1.225-7.946-3.681-6.666-1.914     c1.586,2.183,2.217,3.723,2.486,4.799c-1.82,1.584-3.411,3.481-4.683,5.698c-3.614,6.297-4.069,14.124-0.668,19.749     c-0.373,0.215-0.659,0.576-0.769,1.027c-0.43,1.769-0.334,3.394,0.135,4.912c0.448,1.469,1.231,2.801,2.204,4.054     C191.885,166.129,192.7,166.02,193.532,165.619L193.532,165.619z M231.013,189.095c7.678,2.978,14.77,3.887,18.592,11.625     c3.938,7.931,5.753,25.52,6.391,39.601c0.049,1.094-0.311,2.057-1.067,2.849c-0.756,0.791-1.699,1.195-2.796,1.195h-79.685     c-1.096,0-2.038-0.404-2.796-1.195c-0.756-0.792-1.117-1.755-1.066-2.849c0.637-14.081,2.452-31.67,6.389-39.601     c3.823-7.738,10.913-8.647,18.592-11.625l18.723,15.466L231.013,189.095L231.013,189.095z M0.001,240.402     c0.322-13.309,2.224-26.62,6.35-39.927c1.906-6.139,12.35-9.198,21.999-11.178c3.944,9.664,8.166,14.983,12.416,15.953     l0.15,3.417c0.109,2.523,0.203,4.644,0.281,6.453c0.006,0.145,0.121,0.275,0.303,0.367c0.178,0.092,0.42,0.146,0.688,0.146     c0.265,0,0.511-0.057,0.687-0.146c0.18-0.092,0.295-0.223,0.303-0.367c0.078-1.81,0.17-3.93,0.281-6.453l0.148-3.415     c4.252-0.968,8.478-6.287,12.42-15.955c9.651,1.981,20.091,5.039,21.997,11.178c4.127,13.307,6.029,26.618,6.35,39.927     c0.027,1.082-0.342,2.021-1.098,2.796c-0.753,0.773-1.685,1.166-2.767,1.166c-25.549,0-51.095,0-76.642,0     c-1.082,0-2.011-0.393-2.769-1.166C0.343,242.424-0.026,241.484,0.001,240.402L0.001,240.402z M29.559,176.766     c-5.733-0.388-13.936-1.442-18.592-3.287c4.22-4.216,6.781-8.816,6.961-15.667c0.066-2.471-0.008-5.618-0.008-8.518     c0-13.423,9.788-24.389,23.053-25.014c0.828-0.039,1.603-0.039,2.429,0c13.269,0.623,23.061,11.589,23.061,25.014     c0,3.415-0.197,6.672,0.068,9.958c0.496,6.068,2.96,10.312,6.875,14.227c-4.655,1.847-12.855,2.899-18.588,3.287     c-3.495,4.272-7.77,7.127-12.629,7.127C37.33,183.893,33.053,181.038,29.559,176.766L29.559,176.766z" fill="#3B4552" fill-rule="evenodd"/><path clip-rule="evenodd" d="M159.814,201.222c2.731,0,4.945,2.214,4.945,4.943     c0,2.731-2.214,4.946-4.945,4.946h-43.217v13.616l-25.359-18.563l25.359-18.561v13.617H159.814L159.814,201.222z M44.534,103.97     c0,2.72-2.208,4.926-4.926,4.926c-2.72,0-4.924-2.206-4.924-4.926l-0.008-28.967h-0.021v-0.014c0-5.01,2.039-9.552,5.329-12.844     c3.288-3.29,7.835-5.329,12.861-5.334v-0.02h0.016h13.083V43.175l25.359,18.561L65.943,80.298V66.683H52.86h-0.016v-0.021     c-2.289,0.002-4.368,0.935-5.867,2.437c-1.5,1.503-2.431,3.585-2.431,5.891v0.014h-0.02L44.534,103.97L44.534,103.97z      M208.818,83.885l0.004-10.081h-0.02v-0.016c0-2.304-0.929-4.387-2.429-5.889c-1.501-1.503-3.579-2.435-5.869-2.437v0.02h-0.016     h-25.477c-2.729,0-4.945-2.214-4.945-4.946s2.216-4.946,4.945-4.946h25.477h0.016v0.021c5.023,0.004,9.573,2.044,12.861,5.334     c3.29,3.292,5.328,7.833,5.328,12.841v0.016h-0.021l-0.002,10.081h13.635l-18.561,25.359l-18.561-25.359H208.818L208.818,83.885z     " fill="#2B78C2" fill-rule="evenodd"/></g></g></svg>